<svg width="129" height="129" viewBox="0 0 129 129" fill="none" xmlns="http://www.w3.org/2000/svg">
<path d="M128.5 64.5C128.5 99.8462 99.8462 128.5 64.5 128.5C29.1538 128.5 0.5 99.8462 0.5 64.5C0.5 29.1538 29.1538 0.5 64.5 0.5C99.8462 0.5 128.5 29.1538 128.5 64.5Z" fill="#D9D9D9"/>
<path d="M52.34 53.8333C52.34 54.6581 51.6714 55.3267 50.8467 55.3267C50.0219 55.3267 49.3533 54.6581 49.3533 53.8333C49.3533 53.0086 50.0219 52.34 50.8467 52.34C51.6714 52.34 52.34 53.0086 52.34 53.8333Z" fill="#707070"/>
<path d="M56.6092 44.0663L46.3681 45.9854C44.9528 46.2506 43.6988 47.0563 42.882 48.2254C42.0651 49.3944 41.7524 50.831 42.0125 52.2191L43.8946 62.2632C44.1549 63.6519 44.9667 64.8794 46.1511 65.6712L73.0508 83.6995C75.0133 85.0148 77.6525 84.9367 79.3777 83.3084C83.7204 79.212 87.1623 74.2859 89.4885 68.8379C90.4135 66.6733 89.532 64.2357 87.5695 62.9204L60.6726 44.894C60.0858 44.5002 59.4249 44.2244 58.7276 44.0824C58.0304 43.9403 57.3105 43.9349 56.6092 44.0663Z" stroke="#707070" stroke-width="1.5" stroke-linecap="round" stroke-linejoin="round"/>
<path d="M55.673 118.099L54.4737 105.823L54.3164 105.784L47.5496 116.096L45.8463 115.677L54.0797 103.474L55.7567 103.888L57.3763 118.519L55.673 118.099Z" fill="#707070"/>
<path d="M40.9081 97.3516L31.745 107.695L25.5028 102.165L26.4871 101.053L31.4768 105.474L34.5729 101.979L29.9064 97.845L30.8908 96.7339L35.5573 100.868L38.6713 97.3531L33.6008 92.861L34.5851 91.7499L40.9081 97.3516Z" fill="#707070"/>
<path d="M28.4261 82.8103L15.5058 87.7103L13.8502 83.3447C13.4674 82.3353 13.3256 81.4413 13.4248 80.6628C13.5199 79.8859 13.807 79.2286 14.2862 78.6909C14.7654 78.1532 15.3856 77.74 16.1468 77.4513C16.9081 77.1626 17.6421 77.0622 18.349 77.1501C19.0558 77.238 19.6995 77.5399 20.28 78.0558C20.8563 78.5733 21.3343 79.3325 21.7139 80.3335L23.0537 83.8664L21.6406 84.4023L20.3199 80.9199C20.0583 80.2301 19.7468 79.7133 19.3854 79.3692C19.0224 79.021 18.62 78.8225 18.1781 78.7736C17.7304 78.7221 17.2479 78.7944 16.7306 78.9906C16.2133 79.1868 15.7979 79.455 15.4843 79.7952C15.1707 80.1354 14.9894 80.5578 14.9402 81.0623C14.8868 81.5685 14.9925 82.1706 15.2572 82.8688L16.3004 85.6194L27.8327 81.2457L28.4261 82.8103ZM20.3156 78.9299L24.9138 73.5491L25.6028 75.366L20.9855 80.6963L20.3156 78.9299Z" fill="#707070"/>
<path d="M14.615 54.9916C13.9265 54.9895 13.3601 55.2515 12.9156 55.7776C12.4711 56.3036 12.1984 56.9818 12.0976 57.8124C12.0238 58.4197 12.0575 58.963 12.1987 59.4423C12.3404 59.9171 12.5677 60.3027 12.8807 60.599C13.1941 60.8908 13.5697 61.0633 14.0073 61.1164C14.3734 61.1609 14.6988 61.112 14.9834 60.9698C15.2641 60.8227 15.5083 60.6212 15.7161 60.3655C15.9194 60.1093 16.0953 59.8361 16.2438 59.546C16.3878 59.2554 16.5088 58.9869 16.6066 58.7405L17.1509 57.3929C17.288 57.047 17.4658 56.6654 17.6841 56.2478C17.903 55.8258 18.1798 55.4312 18.5143 55.064C18.845 54.6919 19.2473 54.4009 19.7214 54.1911C20.1955 53.9813 20.754 53.9155 21.397 53.9935C22.1382 54.0835 22.7844 54.3591 23.3356 54.8202C23.8873 55.2769 24.2946 55.8973 24.5573 56.6814C24.8206 57.461 24.8883 58.3777 24.7604 59.4315C24.6411 60.4139 24.3793 61.2453 23.9749 61.9257C23.5712 62.6016 23.0608 63.1106 22.4438 63.4525C21.8274 63.79 21.1408 63.94 20.3841 63.9025L20.5923 62.1878C21.1157 62.2061 21.5655 62.084 21.9418 61.8215C22.3141 61.5541 22.6113 61.196 22.8335 60.7472C23.0517 60.2934 23.1939 59.7941 23.26 59.2493C23.337 58.6152 23.3034 58.0335 23.1593 57.5039C23.0107 56.9739 22.769 56.539 22.4341 56.1993C22.0948 55.859 21.6751 55.6585 21.175 55.5978C20.7196 55.5425 20.3335 55.6248 20.0168 55.8446C19.7001 56.0644 19.4272 56.3711 19.1982 56.7647C18.9692 57.1583 18.7584 57.5881 18.5659 58.0541L17.8787 59.6834C17.4405 60.7176 16.8976 61.5127 16.2501 62.0684C15.6027 62.6241 14.8168 62.8459 13.8925 62.7337C13.1244 62.6404 12.4798 62.3514 11.9587 61.8668C11.4336 61.3771 11.0554 60.7602 10.8241 60.0162C10.5888 59.2672 10.5243 58.4551 10.6305 57.5799C10.7379 56.6958 10.9918 55.9291 11.3924 55.28C11.7884 54.6302 12.2832 54.1375 12.8768 53.8018C13.4709 53.4616 14.1154 53.3224 14.8102 53.3841L14.615 54.9916Z" fill="#707070"/>
<path d="M20.5169 32.6734L31.889 40.523L30.9385 41.9001L19.5663 34.0505L20.5169 32.6734Z" fill="#707070"/>
<path d="M48.3469 19.2637C49.0242 20.5542 49.3765 21.7917 49.4039 22.9762C49.4312 24.1607 49.1724 25.2211 48.6274 26.1574C48.0825 27.0936 47.2883 27.8356 46.2448 28.3832C45.2012 28.9309 44.1395 29.1631 43.0594 29.0797C41.9793 28.9963 40.9596 28.607 40.0003 27.9116C39.041 27.2162 38.2227 26.2233 37.5454 24.9328C36.8681 23.6424 36.5158 22.4049 36.4885 21.2203C36.4611 20.0358 36.7199 18.9754 37.2649 18.0392C37.8098 17.1029 38.604 16.361 39.6475 15.8133C40.6911 15.2656 41.7528 15.0335 42.8329 15.1168C43.913 15.2002 44.9327 15.5896 45.892 16.285C46.8513 16.9804 47.6696 17.9733 48.3469 19.2637ZM46.9131 20.0163C46.3571 18.9568 45.7105 18.1557 44.9735 17.6129C44.2405 17.0679 43.475 16.7661 42.6771 16.7074C41.8832 16.6465 41.1158 16.8105 40.375 17.1993C39.6342 17.5881 39.0613 18.1276 38.6564 18.8176C38.2555 19.5055 38.069 20.307 38.0971 21.2219C38.1291 22.1347 38.4232 23.1208 38.9792 24.1803C39.5352 25.2397 40.1798 26.0419 40.9128 26.5868C41.6498 27.1296 42.4153 27.4315 43.2092 27.4923C44.0071 27.551 44.7765 27.386 45.5173 26.9972C46.2581 26.6084 46.829 26.07 47.2299 25.3821C47.6349 24.692 47.8213 23.8906 47.7892 22.9778C47.7612 22.0629 47.4691 21.0757 46.9131 20.0163Z" fill="#707070"/>
<path d="M70.5424 9.84182V23.66H68.9231L61.3932 12.8106H61.2583V23.66H59.585V9.84182H61.2043L68.7611 20.7182H68.8961V9.84182H70.5424Z" fill="#707070"/>
<path d="M79.6397 26.1661L82.7157 12.1747L84.2212 12.9649L81.5481 24.2721L81.6676 24.3348L89.5025 15.7367L91.1753 16.6147L88.55 27.947L88.6695 28.0097L96.4566 19.3865L97.9621 20.1767L88.1949 30.6562L86.6655 29.8535L89.0823 18.6861L88.9867 18.6359L81.1691 26.9688L79.6397 26.1661Z" fill="#707070"/>
<path d="M110.131 34.0435L98.7592 41.8932L97.8086 40.5161L109.181 32.6664L110.131 34.0435Z" fill="#707070"/>
<path d="M104.638 54.9129L105.844 54.7665L117.78 60.8207L116.872 53.3458L118.346 53.1669L119.494 62.6244L118.288 62.7708L106.352 56.7165L107.26 64.1915L105.786 64.3704L104.638 54.9129Z" fill="#707070"/>
<path d="M104.244 74.9843L104.866 73.3441L115.987 82.9882L115.375 84.6032L100.655 84.4474L101.278 82.8071L113.618 83.071L113.656 82.97L104.244 74.9843ZM109.062 77.504L106.554 84.1155L105.166 83.5892L107.674 76.9776L109.062 77.504Z" fill="#707070"/>
<path d="M95.0876 91.7762L104.251 102.119L100.756 105.215C99.9479 105.931 99.1623 106.381 98.3993 106.564C97.6391 106.751 96.9227 106.715 96.25 106.458C95.5773 106.201 94.971 105.767 94.4311 105.158C93.8913 104.548 93.5371 103.898 93.3687 103.206C93.2002 102.514 93.2542 101.805 93.5308 101.079C93.8102 100.357 94.3506 99.6404 95.152 98.9305L97.9801 96.4249L98.9824 97.5562L96.1946 100.026C95.6424 100.515 95.2696 100.99 95.0761 101.45C94.8792 101.912 94.8362 102.359 94.9472 102.79C95.0578 103.227 95.2965 103.652 95.6634 104.066C96.0303 104.48 96.4284 104.774 96.8577 104.946C97.287 105.119 97.7462 105.138 98.2354 105.006C98.7276 104.876 99.2531 104.564 99.812 104.069L102.014 102.118L93.8352 92.8858L95.0876 91.7762ZM94.3354 100.736L87.6738 98.3443L89.1283 97.0557L95.7495 99.4828L94.3354 100.736Z" fill="#707070"/>
<path d="M75.4385 103.52L79.5788 102.499L82.8858 115.916L78.562 116.982C77.2605 117.302 76.0807 117.308 75.0224 116.999C73.9651 116.695 73.0665 116.103 72.3265 115.225C71.5875 114.35 71.0469 113.219 70.7046 111.83C70.3601 110.433 70.3125 109.168 70.5617 108.036C70.812 106.909 71.3465 105.957 72.1651 105.181C72.9848 104.409 74.0759 103.856 75.4385 103.52ZM78.3094 104.341L75.8986 104.935C74.7893 105.208 73.9227 105.649 73.2988 106.257C72.675 106.865 72.2814 107.608 72.1181 108.487C71.9548 109.365 72.0077 110.351 72.2769 111.443C72.5438 112.526 72.9505 113.415 73.497 114.109C74.0445 114.808 74.7215 115.281 75.528 115.526C76.3356 115.777 77.2634 115.773 78.3116 115.514L80.9058 114.875L78.3094 104.341Z" fill="#707070"/>
</svg>
